<svg id="Camada_1" data-name="Camada 1" xmlns="http://www.w3.org/2000/svg" viewBox="0 0 500 500"><defs><style>.cls-1{fill:#293377;}.cls-2{fill:#1c3661;}.cls-3{fill:#0099ce;}.cls-4{fill:#fff;}</style></defs><title>logo</title><g id="logo"><path class="cls-1" d="M395,144.69h0a5.17,5.17,0,0,1-3.5-6.36l16.39-58.89A41.44,41.44,0,0,1,447.53,49H483a5.11,5.11,0,0,1,5.07,5.15h0A5.11,5.11,0,0,1,483,59.31H451.37A36.18,36.18,0,0,0,416.62,86l-15.35,55.14A5.07,5.07,0,0,1,395,144.69Z"/><path class="cls-2" d="M396.4,150.17a10.64,10.64,0,0,1-2.84-.4h0a10.45,10.45,0,0,1-7.12-12.85L402.83,78a46.71,46.71,0,0,1,44.7-34.29H483a10.43,10.43,0,0,1,0,20.86H451.37a31,31,0,0,0-29.69,22.82l-15.35,55.14a10.33,10.33,0,0,1-4.92,6.29A10.18,10.18,0,0,1,396.4,150.17ZM446.67,54.3A36.15,36.15,0,0,0,413.5,79.09,41.63,41.63,0,0,1,446.67,54.3Z"/><path class="cls-1" d="M39.17,409l-.05-.94a5.33,5.33,0,0,1,5-5.61l296.45-15.9a19.91,19.91,0,0,0,18.23-14.43,20.16,20.16,0,0,0-3.92-19.17,5.45,5.45,0,0,1-.36-6.87l.55-.74a5.32,5.32,0,0,1,8.27-.26,32,32,0,0,1-22.13,53.05L44.76,414A5.33,5.33,0,0,1,39.17,409Z"/><path class="cls-2" d="M44.46,419.31a10.57,10.57,0,0,1-10.54-10l-.05-.94a10.62,10.62,0,0,1,10-11.16l296.45-15.9a14.66,14.66,0,0,0,13.48-10.7c.58-1.9,2.07-8.53-2.84-14.15a10.68,10.68,0,0,1-.6-13.54l.55-.73a10.55,10.55,0,0,1,16.39-.58,37.32,37.32,0,0,1-25.76,61.82L45,419.3Zm0-10.6s0,.05,0,0l296.47-15.9a26.76,26.76,0,0,0,18.48-44.28l-.69.68a.71.71,0,0,0,.12.2,25.35,25.35,0,0,1,5,24.19c-2.51,8.29-9.85,17.41-23,18.17L44.42,407.72Z"/><path class="cls-3" d="M344.76,354.21H63.12a21.68,21.68,0,0,1-21.62-21L37.6,217.54c0-30,25.19-60.17,53.55-61.28a22.4,22.4,0,0,0,3.17-.32l278.74-52.41c15-3.23,28.35,10.37,25.82,26.25L366.12,335.91A21.66,21.66,0,0,1,344.76,354.21Z"/><ellipse class="cls-3" cx="100.87" cy="440.78" rx="26.21" ry="26.33"/><ellipse class="cls-3" cx="323.77" cy="433.46" rx="31.85" ry="31.99"/><path class="cls-2" d="M100.87,478a37.2,37.2,0,1,1,37-37.2A37.16,37.16,0,0,1,100.87,478Zm0-63.53a26.33,26.33,0,1,0,26.21,26.33A26.3,26.3,0,0,0,100.87,414.45Z"/><path class="cls-2" d="M323.77,476.32a42.86,42.86,0,1,1,42.67-42.86A42.81,42.81,0,0,1,323.77,476.32Zm0-74.85a32,32,0,1,0,31.85,32A31.95,31.95,0,0,0,323.77,401.47Z"/><path class="cls-2" d="M344.79,362.57h-285a25.7,25.7,0,0,1-25.62-25.74V211.14a61.89,61.89,0,0,1,51-61.09L381,97.34a25.68,25.68,0,0,1,29.64,30.17L370,341.66A25.69,25.69,0,0,1,344.79,362.57Zm40.74-253a13.31,13.31,0,0,0-2.34.21L87.31,162.5a49.27,49.27,0,0,0-40.59,48.64V336.83a13.08,13.08,0,0,0,13,13.1h285a13.07,13.07,0,0,0,12.82-10.64l40.66-214.15a13,13,0,0,0-3.53-11.66A12.8,12.8,0,0,0,385.53,109.58Z"/><path class="cls-4" d="M125,287.92a31.52,31.52,0,0,1-9.53,22.92,33.54,33.54,0,0,1-10.76,7,33.32,33.32,0,0,1-25.18,0,32.11,32.11,0,0,1-10.6-7,31.34,31.34,0,0,1-7.21-10.47,32.88,32.88,0,0,1,0-24.91A31.37,31.37,0,0,1,68.88,265a32.11,32.11,0,0,1,10.6-7,33.5,33.5,0,0,1,25.25,0,32.6,32.6,0,0,1,10.69,7A31.78,31.78,0,0,1,125,287.92ZM92.1,306.07a14.73,14.73,0,0,0,11.53-5.15,20.63,20.63,0,0,0-.06-25.95,15.36,15.36,0,0,0-23,0,18.94,18.94,0,0,0-4.55,13q0,7.93,4.49,13A14.72,14.72,0,0,0,92.1,306.07Z"/><path class="cls-4" d="M134.4,318.68V276.07h13.7v8.65a20.81,20.81,0,0,1,6.88-7.6,17.57,17.57,0,0,1,9.37-2.4,19,19,0,0,1,7.33,1.33,12.89,12.89,0,0,1,5.23,3.82,13.12,13.12,0,0,1,2.39,5.23,43.53,43.53,0,0,1,.72,9.2v24.38H165V295.86c0-3.41-.55-5.88-1.66-7.43s-2.87-2.32-5.31-2.32c-3.11,0-5.38,1.16-6.8,3.46s-2.15,6.05-2.15,11.22v17.89Z"/><path class="cls-4" d="M191.61,318.68V256.91h16.84a104.89,104.89,0,0,1,14.56.68,21.92,21.92,0,0,1,7.12,2.32,13.06,13.06,0,0,1,5.18,5.08,14.84,14.84,0,0,1,1.79,7.37,12.4,12.4,0,0,1-2.67,8.37q-2.67,3.11-8.5,4.71,6.56.49,10.25,4.62t3.69,11a17.59,17.59,0,0,1-2.08,8.69,14.36,14.36,0,0,1-5.94,5.82,24.27,24.27,0,0,1-7.77,2.41,111,111,0,0,1-15.12.71Zm15.54-37.08h3.36q6.23,0,8.53-1.37t2.31-4.75c0-2.34-.72-4-2.16-4.92s-4.25-1.41-8.43-1.41h-3.61Zm0,24.47H213q6,0,8.44-1.5a5.36,5.36,0,0,0,2.48-5c0-2.59-.75-4.39-2.27-5.42s-4.31-1.54-8.4-1.54h-6.13Z"/><path class="cls-4" d="M294.39,276.07v42.61H280.66v-6.91a19.77,19.77,0,0,1-6.62,6.49,17.3,17.3,0,0,1-8.63,2.07,16.62,16.62,0,0,1-13.57-6.22q-5.09-6.23-5.08-16.69t5.31-16.56q5.32-6.14,14.31-6.14a15.88,15.88,0,0,1,8.25,2,16.94,16.94,0,0,1,5.94,6.3v-7Zm-13.15,21.27a11.34,11.34,0,0,0-2.64-7.9,10.43,10.43,0,0,0-14.43,0q-2.62,2.9-2.62,7.92a11.14,11.14,0,0,0,2.64,7.84,10.48,10.48,0,0,0,14.41,0A11.14,11.14,0,0,0,281.24,297.34Z"/><path class="cls-4" d="M351.18,276.07V318.6q0,9.66-5.86,14.28T327.2,337.5q-9.92,0-15.54-3.69a12.57,12.57,0,0,1-6-10.44h15.5a4.35,4.35,0,0,0,2.21,3.1,9.57,9.57,0,0,0,4.93,1.12q4.83,0,6.66-2.34t1.83-9.86v-3.88a15.44,15.44,0,0,1-6,6,18.14,18.14,0,0,1-8.7,2,16.68,16.68,0,0,1-13.48-6.09q-5.08-6.11-5.08-16.27t5.31-16.31q5.31-6,14.3-6a16.29,16.29,0,0,1,8.22,2,16.85,16.85,0,0,1,6,6.2v-6.83ZM338,297.25q0-4.94-2.62-7.74a9.45,9.45,0,0,0-7.25-2.81,9.64,9.64,0,0,0-7.33,2.81,12.56,12.56,0,0,0,0,15.46,9.57,9.57,0,0,0,7.33,2.83,9.41,9.41,0,0,0,7.23-2.83A10.86,10.86,0,0,0,338,297.25Z"/><path class="cls-4" d="M277.15,186.77a3,3,0,0,1-3.61-1.71c-1.67-4-4.07-6.76-7.16-8.26a16.37,16.37,0,0,0-10.17-1,3,3,0,0,1-3.35-1.84h0a3,3,0,0,1,2.18-4A22.21,22.21,0,0,1,269,171.43c4.44,2.16,7.82,6,10.06,11.36a3,3,0,0,1-1.88,4Z"/><path class="cls-4" d="M249.78,162.18h0a3,3,0,0,1,2.23-3.85c5-1,14.93-2.09,24,2.74h0c6.65,3.53,11.51,9.5,14.48,17.75a3,3,0,0,1-2,3.87h0a3,3,0,0,1-3.62-1.86c-2.46-6.79-6.36-11.65-11.63-14.47-7.43-4-15.94-3-20.09-2.17A3,3,0,0,1,249.78,162.18Z"/><path class="cls-4" d="M301.05,178.55a3,3,0,0,1-3.76-1.63c-5.92-14.19-15.76-22.76-29.28-25.5a49.15,49.15,0,0,0-17.77-.18,3,3,0,0,1-3.37-2.14h0a3,3,0,0,1,2.34-3.75,55.29,55.29,0,0,1,19.73.17c10.92,2.16,25.41,9,33.82,29.08a3,3,0,0,1-1.71,4Z"/><path class="cls-4" d="M134.1,237.39H118.88l-3.51-25.95c-.24-1.83-.47-3.87-.67-6.11s-.39-4.69-.55-7.34a75,75,0,0,1-2.25,9.51c-.24.8-.42,1.38-.53,1.77l-8.12,28.12H92.39l-8.12-28.12-.49-1.77A65.86,65.86,0,0,1,81.54,198q-.24,3.41-.57,6.75t-.78,6.66l-3.51,25.95H61.54l9.23-60H86.88l9,30.95c.06.22.17.58.33,1.07a40.45,40.45,0,0,1,1.59,7.09,29,29,0,0,1,.61-3.54c.3-1.3.71-2.87,1.23-4.7l9.1-30.87h16.16Z"/><path class="cls-4" d="M186.05,196v41.41H172.71v-6.72a19.23,19.23,0,0,1-6.43,6.31,16.83,16.83,0,0,1-8.39,2,16.16,16.16,0,0,1-13.18-6.05q-4.94-6-4.94-16.21t5.17-16.09q5.16-6,13.89-6a15.44,15.44,0,0,1,8,2,16.58,16.58,0,0,1,5.78,6.13V196Zm-12.77,20.67a11,11,0,0,0-2.57-7.67,10.12,10.12,0,0,0-14,0,11,11,0,0,0-2.55,7.69,10.83,10.83,0,0,0,2.57,7.62,10.18,10.18,0,0,0,14,0A10.83,10.83,0,0,0,173.28,216.65Z"/><path class="cls-4" d="M197.11,237.39V196h13.71v9.76a17.58,17.58,0,0,1,5.8-8,14.72,14.72,0,0,1,8.9-2.67c.57,0,1.14,0,1.73.06s1.18.11,1.77.19l-1.38,13.28a15.93,15.93,0,0,0-2.57-.66,16.17,16.17,0,0,0-2.45-.2q-5.31,0-8.18,3.26t-2.88,9.24v17.14Z"/><path class="cls-4" d="M234.45,237.39V173.85h14.29v40.21l15-18.08h18l-18.53,19.93,20.2,21.48H264.28L248.74,219v18.41Z"/><path class="cls-4" d="M327.7,219.6H296.36c0,3.19.84,5.66,2.45,7.4a8.83,8.83,0,0,0,6.81,2.6,11.45,11.45,0,0,0,5.58-1.25,8.11,8.11,0,0,0,3.44-3.71l10.94,4.43a14.28,14.28,0,0,1-6.94,7.33,26.14,26.14,0,0,1-12.2,2.59q-10.77,0-17.28-6t-6.51-15.84a21.59,21.59,0,0,1,6.51-16.07q6.51-6.4,16.46-6.4,10.25,0,16.17,6.48t5.91,17.75Zm-14.32-8.24a8.87,8.87,0,0,0-2.67-5.66,7.83,7.83,0,0,0-5.57-2.13,8,8,0,0,0-5.66,1.94,10.13,10.13,0,0,0-2.79,5.85Z"/><path class="cls-4" d="M338.27,237.39V206.31h-6.16V196h6.16V183.64H352.6V196h6.16v10.33H352.6v31.08Z"/></g></svg>